<svg aria-hidden="true" style="position: absolute; width: 0; height: 0; overflow: hidden;" version="1.1" xmlns="http://www.w3.org/2000/svg" xmlns:xlink="http://www.w3.org/1999/xlink">
<defs>
<symbol id="icon-expand" viewBox="0 0 28 28">
<title>expand</title>
<path d="M12.089 5.24l-6.812 0.040 0.003 6.768 2.266-2.267 3.022 3.022 2.332-2.332-3.021-3.022 2.21-2.209zM10.569 15.181l-3.022 3.023-2.266-2.268-0.003 6.824 6.812-0.016-2.21-2.209 3.022-3.021-2.333-2.333zM17.432 12.804l3.021-3.022 2.266 2.267 0.004-6.768-6.812-0.040 2.21 2.209-3.022 3.022 2.333 2.332zM20.453 18.204l-3.021-3.023-2.333 2.333 3.022 3.021-2.21 2.209 6.812 0.016-0.004-6.824-2.266 2.268z"></path>
</symbol>
<symbol id="icon-collapse" viewBox="0 0 28 28">
<title>collapse</title>
<path d="M10.056 7.662l-3.022-3.021-2.332 2.332 3.022 3.021-2.266 2.266 6.822 0.003-0.015-6.811-2.209 2.209zM20.276 9.994l3.022-3.021-2.332-2.332-3.022 3.021-2.209-2.209-0.015 6.811 6.822-0.003-2.266-2.266zM7.724 18.006l-3.022 3.021 2.332 2.332 3.022-3.021 2.21 2.209 0.015-6.811-6.822 0.004 2.265 2.266zM22.542 15.739l-6.822-0.004 0.015 6.811 2.209-2.209 3.022 3.021 2.332-2.332-3.022-3.021 2.266-2.266z"></path>
</symbol>
</defs>
</svg>
